# xmcd
#
# Track frame offsets: 
#        150
#        9217
#        13662
#        24215
#        39647
#        50955
#        63772
#        76692
#        85940
#        97652
#        108712
#        123400
#        135925
#        147592
#        156925
#        167145
#        180675
#        197742
#        212770
#        225097
#
# Disc length: 3186 seconds
#
# Revision: 0
# Processed by: cddbd v1.5.2PL0 Copyright (c) Steve Scherf et al.
# Submitted via: ExactAudioCopyFreeDBPlugin 1.0
#
DISCID=f80c7014
DTITLE=キング男声合唱団他 - 軍歌メモリアル
DYEAR=1900
DGENRE=Retro
TTITLE0=宮さん宮さん
TTITLE1=君が代
TTITLE2=抜刀隊
TTITLE3=敵は幾万
TTITLE4=元寇
TTITLE5=月下の陣
TTITLE6=凱旋
TTITLE7=道は六百八十里
TTITLE8=勇敢なる水兵
TTITLE9=雪の進軍
TTITLE10=婦人従軍歌
TTITLE11=如何に狂風
TTITLE12=日本陸軍
TTITLE13=日本海海戦
TTITLE14=広瀬中佐
TTITLE15=橘中佐
TTITLE16=水師営の会見
TTITLE17=戦友
TTITLE18=君が代行進曲
TTITLE19=軍艦行進曲
EXTD=
EXTT0=
EXTT1=
EXTT2=
EXTT3=
EXTT4=
EXTT5=
EXTT6=
EXTT7=
EXTT8=
EXTT9=
EXTT10=
EXTT11=
EXTT12=
EXTT13=
EXTT14=
EXTT15=
EXTT16=
EXTT17=
EXTT18=
EXTT19=
PLAYORDER=
